# xmcd CD database file
#
# Track frame offsets:
#	150
#	12342
#	31435
#	52120
#	72534
#	85925
#	102724
#	121393
#	132572
#	146190
#	155454
#	176494
#	193540
#	221273
#	237059
#	255120
#	269753
#	286933
#	303146
#	320100
#	336431
#
# Disc length: 4741 seconds
#
# Revision: 1
# Processed by: cddbd v1.5.2PL0 Copyright (c) Steve Scherf et al.
# Submitted via: CDex 1.51
#
DISCID=43128315
DTITLE=Various Artist - ZM-UKPP-Disc-1
DYEAR=1900
DGENRE=Blues
TTITLE0=Beatles The - A Hard Day's Night
TTITLE1=Free - All Right Now
TTITLE2=Don McLean - American Pie
TTITLE3=Robbie Williams - Angels
TTITLE4=Supremes The - Baby Love
TTITLE5=Britney Spears - Baby One More Time
TTITLE6=Take That - Back For Good
TTITLE7=Creedence Clearwater Revival - Bad Moon Rising
TTITLE8=Bobby Darin - Beyond The Sea
TTITLE9=Shirley Bassey - Big Spender
TTITLE10=Alannah Myles - Black Velvet
TTITLE11=Jacksons The - Blame It On The Boogie
TTITLE12=Queen - Bohemian Rhapsody
TTITLE13=Van Morrison - Brown Eyed Girl
TTITLE14=Rolling Stones The - Brown Sugar
TTITLE15=Foundations The - Build Me Up Buttercup
TTITLE16=Kylie Minogue - Can't Get You Out Of My Head
TTITLE17=Andy Williams - Can't Take My Eyes Off You
TTITLE18=Rose Royce - Car Wash
TTITLE19=Diana Ross - Chain Reaction
TTITLE20=Dexys Midnight Runners - Come On Eileen
EXTD=
EXTT0=
EXTT1=
EXTT2=
EXTT3=
EXTT4=
EXTT5=
EXTT6=
EXTT7=
EXTT8=
EXTT9=
EXTT10=
EXTT11=
EXTT12=
EXTT13=
EXTT14=
EXTT15=
EXTT16=
EXTT17=
EXTT18=
EXTT19=
EXTT20=
PLAYORDER=
